<svg width="60" height="83" viewBox="0 0 60 83" fill="none" xmlns="http://www.w3.org/2000/svg">
<path d="M30.3635 63.5508C46.6559 63.5508 59.8635 49.3976 59.8635 31.9387C59.8635 14.4799 46.6559 0.32666 30.3635 0.32666C14.0711 0.32666 0.863525 14.4799 0.863525 31.9387C0.863525 49.3976 14.0711 63.5508 30.3635 63.5508Z" fill="#FFE3E1"/>
<path d="M6.16193 81.7373C6.16193 82.1637 17.304 82.5331 31.0327 82.5331C44.7614 82.5331 55.9035 82.192 55.9035 81.7373C55.9035 81.3108 44.7614 80.9414 31.0327 80.9414C17.304 80.9414 6.16193 81.311 6.16193 81.7373Z" fill="#C7D1EA"/>
<path d="M39.1823 70.7881C37.1617 71.132 35.3184 71.2313 33.1754 71.1659L35.8937 59.1853C53.7311 56.4612 42.2142 32.286 52.5139 20.1727C53.1791 20.021 53.0019 20.907 52.8296 21.5583C47.8838 34.5216 63.4861 66.2696 39.1823 70.7881Z" fill="#8196C9"/>
<path d="M41.2863 60.1926C39.9694 68.1016 36.9149 71.0717 36.9149 71.0717C35.7407 71.1644 34.5263 71.2079 33.2034 71.1596L35.9303 59.4601C35.9303 59.4601 43.1984 58.1362 45.339 52.051C47.0243 47.2941 46.1921 34.6448 49.4358 25.5969C47.6589 31.1035 47.7332 43.7098 47.212 50.5044C46.6253 57.7806 41.2863 60.1926 41.2863 60.1926Z" fill="#6A88C4"/>
<path d="M39.1823 70.7883C41.2394 70.3486 46.1228 68.6234 48.9597 61.8841C52.6094 53.2102 50.4916 46.9878 50.384 35.6428C50.2803 24.4427 52.4712 20.2409 52.5076 20.1453C52.5076 20.1453 52.6587 20.1691 52.8717 20.2081C53.0117 20.4386 53.0145 20.9626 52.8448 21.497C51.8023 24.8539 51.2888 31.9384 52.5224 40.5488C54.1455 51.6358 55.2023 68.041 39.1823 70.7883Z" fill="#91AADB"/>
<path d="M40.4244 70.7383C38.2629 71.231 35.8591 71.4289 33.192 71.3662C33.1302 71.3512 33.0685 71.3362 33.0281 71.287C32.9877 71.2379 32.9751 71.1824 32.9901 71.1207L35.717 59.4211C35.7258 59.3318 35.8026 59.285 35.8858 59.266C35.9689 59.2471 43.0649 57.8922 45.1667 52.0199C45.8558 50.0553 46.1121 46.7027 46.4209 42.8134C46.9924 35.5991 47.6836 26.6083 51.5254 20.9516C52.0729 20.1563 52.5214 19.821 52.8553 20.0073C53.2787 20.2023 53.249 20.967 53.0213 21.6312C51.9725 24.9603 51.4717 32.1004 52.7076 40.5936C53.9436 49.0868 54.6542 59.6239 49.0189 65.9807C46.9226 68.2953 44.0549 69.911 40.4244 70.7383ZM33.4551 70.9856C40.3679 71.1301 45.4946 69.3205 48.7427 65.6648C54.2371 59.4566 53.5518 49.0305 52.3347 40.6203C51.086 32.0717 51.602 24.87 52.6382 21.4853C52.8595 20.7935 52.7648 20.3778 52.669 20.3414C52.6349 20.32 52.3578 20.3832 51.838 21.1722C48.0604 26.7267 47.3566 35.6621 46.8065 42.8423C46.5039 46.7594 46.2263 50.1461 45.5219 52.1722C43.5146 57.8189 37.089 59.429 36.0635 59.6627L33.4551 70.9856Z" fill="#5464B5"/>
<path d="M49.3689 74.1766C49.3689 75.2283 48.374 76.0242 47.4645 76.5927C47.3793 76.6495 47.3223 76.6778 47.2371 76.7349L39.5627 81.3111C38.9942 81.6522 38.3972 81.6238 37.8856 81.3963C37.1749 81.0552 36.6918 80.2593 36.9192 79.3781C37.2035 78.2412 37.8004 76.9337 38.9657 75.5409H38.9372C38.9372 75.5409 36.0095 76.5641 30.8933 75.0861C28.6478 74.4323 25.9475 73.2954 22.9063 71.3626C22.9063 71.3626 38.4826 50.4427 39.9889 55.0758C40.9553 57.975 42.0923 60.5333 43.2577 62.7786C46.3276 68.5486 49.3689 72.1585 49.3689 74.1766Z" fill="#8196C9"/>
<path d="M24.0149 77.3315C24.0149 77.3315 23.9581 77.4166 23.8727 77.5874C23.8442 77.6159 23.8159 77.6725 23.7874 77.7296C23.162 78.8096 21.2861 81.7088 19.2111 81.6236H10.286C9.63223 81.6236 9.12061 81.3109 8.80804 80.8278C7.55741 78.6391 10.6271 77.1896 12.7305 76.3652C12.7019 76.3652 8.21106 70.112 9.71758 59.8511C9.68907 60.0785 9.68908 60.3058 9.68908 60.5617C9.74592 61.3007 10.0587 62.1534 10.5703 63.0347C13.2422 67.7242 21.0304 73.9207 24.0149 77.3315Z" fill="#8196C9"/>
<path d="M34.1906 75.2566C28.6195 79.0084 15.7151 78.6674 11.7642 71.9595C6.16475 61.0731 12.3895 50.7837 14.8339 39.5563C16.7667 32.422 18.7848 25.0317 18.7848 25.0317L33.1674 24.719C33.1674 24.719 37.0046 44.3314 39.2784 51.8353C41.0407 58.9128 41.5525 69.8276 34.1906 75.2566Z" fill="#8196C9"/>
<path d="M11.8779 71.9877C12.5032 73.8922 13.3559 75.4839 14.4929 76.6208C14.4929 76.6208 8.58065 78.4116 8.80804 80.8275C7.55741 78.6388 10.6271 77.1893 12.7305 76.3649C12.7019 76.3649 8.21106 70.1116 9.71758 59.8507C9.68907 60.0781 9.68908 60.3055 9.68908 60.5614C9.91646 57.4349 10.6271 54.4503 11.3661 52.1765C11.622 51.3806 11.8494 50.5848 12.1051 49.7604C12.8158 47.2875 13.839 43.4788 14.9191 39.5847C14.8623 39.8121 13.2706 47.0601 11.5083 54.4503C10.883 57.0653 10.5703 60.0783 10.5703 63.0343C10.6273 66.2177 11.0252 69.3726 11.8779 71.9877Z" fill="#91AADB"/>
<path d="M49.369 74.1766C49.369 75.2283 48.3741 76.0242 47.4645 76.5927C47.3793 76.6495 47.3223 76.6778 47.2371 76.7349L39.5627 81.3111C38.9942 81.6522 38.3972 81.6238 37.8856 81.3963C39.7901 80.4582 47.2086 76.7349 47.0381 74.5177C46.8675 72.3007 39.4205 59.0551 38.3121 48.4531C38.3121 48.4531 39.6195 54.2516 43.3716 62.9208C45.6738 68.2075 49.369 72.1585 49.369 74.1766Z" fill="#6A88C4"/>
<path d="M9.66757 60.2059L9.74629 60.0496C9.60408 60.0211 9.49512 60.1008 9.49512 59.9871C9.77935 57.7984 10.5136 54.2796 11.2243 52.0909C11.4802 51.3234 11.7076 50.5275 11.9633 49.6748C13.1571 45.4682 15.3458 37.4241 16.966 31.4268C16.9945 31.3131 17.1082 31.2562 17.1933 31.2845C17.307 31.3131 17.3639 31.4268 17.3356 31.5119C15.7153 37.5093 13.5268 45.5534 12.3329 49.76C12.1055 50.6127 11.8496 51.4086 11.5939 52.1761C10.8832 54.3079 10.1963 57.7229 9.9121 59.9114C9.85228 60.0281 9.78127 60.2059 9.66757 60.2059Z" fill="#5464B5"/>
<path d="M39.6763 53.6544C39.5912 53.6544 39.5058 53.5975 39.4773 53.5122C37.9993 48.2538 36.2939 40.9773 34.8725 34.0418C34.844 33.9281 34.9294 33.8428 35.0147 33.8144C35.1284 33.7859 35.2138 33.8713 35.2421 33.9567C36.635 40.8921 38.3687 48.1401 39.8184 53.3985C39.8469 53.5124 39.79 53.5975 39.6763 53.6544Z" fill="#5464B5"/>
<path d="M34.3611 54.507C35.1287 66.8714 29.3016 71.7887 21.9399 70.8223C14.5782 69.8559 13.7255 60.4475 14.4929 53.6543C15.772 42.4554 19.3533 29.9205 20.9167 23.582C21.1726 22.5302 29.7281 21.9903 29.7564 23.0987C29.7564 23.0987 33.5084 40.9774 34.3611 54.507Z" fill="#E6ECFF"/>
<path d="M23.7875 77.7295C23.1622 78.8096 21.2863 81.7087 19.2113 81.6235H10.2862C9.63242 81.6235 9.1208 81.3108 8.80823 80.8277C8.80823 80.8277 13.2991 80.8845 17.1363 80.5149C20.9735 80.1453 21.2861 77.3315 21.2861 77.3315L23.7875 77.7295Z" fill="#6A88C4"/>
<path d="M21.7125 37.2255C21.684 37.2255 21.684 37.2255 21.6557 37.2255C21.542 37.197 21.4852 37.0833 21.5135 36.9696L21.7977 35.8042C21.8262 35.6905 21.9399 35.6337 22.0536 35.662C22.1673 35.6905 22.2242 35.8042 22.1958 35.9179L21.9116 37.0833C21.8831 37.1687 21.7979 37.2255 21.7125 37.2255Z" fill="#5464B5"/>
<path d="M23.617 36.2875H23.5885C23.4748 36.259 23.418 36.1738 23.418 36.0601L23.617 34.8663C23.6455 34.7527 23.7307 34.6958 23.8444 34.6958C23.9581 34.7243 24.0149 34.8095 24.0149 34.9232L23.8159 36.117C23.7876 36.2307 23.7024 36.2875 23.617 36.2875Z" fill="#5464B5"/>
<path d="M24.8676 38.0499C24.8393 38.0499 24.8393 38.0215 24.8676 38.0499C24.7254 38.0214 24.6402 37.9362 24.6686 37.8225L24.8108 36.6287C24.8393 36.515 24.9245 36.4297 25.0382 36.4582C25.1519 36.4867 25.2372 36.5719 25.2087 36.6856L25.0665 37.8793C25.0382 37.9647 24.953 38.0499 24.8676 38.0499Z" fill="#5464B5"/>
<path d="M26.8004 36.6856C26.6867 36.6856 26.6013 36.572 26.6013 36.4583L26.6867 35.2645C26.6867 35.1508 26.8004 35.0654 26.9141 35.0654C27.0277 35.0654 27.1131 35.1791 27.1131 35.2928L27.0278 36.4866C26.9994 36.6003 26.8857 36.6856 26.8004 36.6856Z" fill="#5464B5"/>
<path d="M28.5628 38.1066C28.4491 38.1066 28.3638 38.0212 28.3638 37.9361L28.2216 36.7423C28.2216 36.6286 28.2784 36.5432 28.3921 36.5149C28.5058 36.5149 28.5911 36.5717 28.6195 36.6854L28.7617 37.8792C28.7902 37.9929 28.7048 38.1066 28.5628 38.1066Z" fill="#5464B5"/>
<path d="M19.5809 38.1064C19.5524 38.1064 19.5524 38.1064 19.524 38.1064C19.4103 38.0779 19.3535 37.9642 19.3818 37.8506L19.7229 36.7136C19.7514 36.5999 19.8651 36.5431 19.9788 36.5714C20.0925 36.5999 20.1494 36.7136 20.121 36.8273L19.7799 37.9642C19.7514 38.0496 19.6661 38.1064 19.5809 38.1064Z" fill="#5464B5"/>
<path d="M22.9632 39.3289C22.9346 39.3289 22.9346 39.3289 22.9063 39.3289C22.7926 39.3004 22.7358 39.1867 22.7641 39.1015L23.02 37.9077C23.0485 37.794 23.1622 37.7372 23.2474 37.7655C23.3611 37.794 23.4179 37.9077 23.3896 37.9929L23.1337 39.1867C23.1339 39.272 23.0485 39.3289 22.9632 39.3289Z" fill="#5464B5"/>
<path d="M26.431 39.7838C26.3173 39.7838 26.2319 39.6986 26.2319 39.5847V38.3909C26.2319 38.2773 26.3173 38.1919 26.431 38.1919C26.5447 38.1919 26.63 38.2773 26.63 38.3909V39.5847C26.6299 39.6984 26.5447 39.7838 26.431 39.7838Z" fill="#5464B5"/>
<path d="M30.3534 39.4996C30.2681 39.4996 30.1829 39.4427 30.1544 39.329L29.927 38.1636C29.8985 38.0499 29.9838 37.9362 30.0975 37.9362C30.2112 37.9077 30.3249 37.993 30.3249 38.1067L30.5523 39.2722C30.5808 39.3859 30.4954 39.4996 30.3818 39.4996C30.3818 39.4996 30.3819 39.4996 30.3534 39.4996Z" fill="#5464B5"/>
<path d="M9.29131 81.5096C9.23447 81.5096 9.20596 81.4811 9.14911 81.4528C9.06375 81.3676 9.06376 81.2537 9.12061 81.1686L9.9733 80.1168C10.0587 80.0316 10.1724 80.0316 10.2575 80.0883C10.3429 80.1735 10.3429 80.2874 10.286 80.3725L9.43334 81.4243C9.40518 81.4813 9.34833 81.5096 9.29131 81.5096Z" fill="#5464B5"/>
<path d="M8.669 80.5048C8.61216 80.5048 8.58365 80.4763 8.5268 80.4479C8.44145 80.3627 8.44144 80.2489 8.49829 80.1637L9.35099 79.1119C9.43634 79.0268 9.55004 79.0267 9.63522 79.0834C9.72057 79.1686 9.72058 79.2825 9.66373 79.3677L8.81104 80.4194C8.78287 80.4764 8.72603 80.5048 8.669 80.5048Z" fill="#5464B5"/>
<path d="M10.4567 81.7655C10.3999 81.7655 10.3714 81.737 10.3145 81.7086C10.2292 81.6234 10.2292 81.5096 10.286 81.4244L10.9682 80.6285C11.0535 80.5434 11.1672 80.5434 11.2524 80.6C11.3378 80.6852 11.3378 80.7991 11.2809 80.8843L10.5988 81.6801C10.5704 81.7655 10.5136 81.7655 10.4567 81.7655Z" fill="#5464B5"/>
<path d="M27.6247 46.2642L34.0485 54.7345L29.6143 52.6028L27.1699 56.8948L27.6247 46.2642Z" fill="#2A395B"/>
<path d="M27.17 57.0937C27.1415 57.0937 27.1415 57.0937 27.1131 57.0937C27.0278 57.0652 26.9709 56.98 26.9709 56.8947L27.4257 46.2642C27.4257 46.179 27.4826 46.0937 27.5679 46.0651C27.6533 46.0366 27.7385 46.0651 27.7953 46.122L34.2191 54.5923C34.276 54.6775 34.276 54.7628 34.2191 54.8482C34.1623 54.9336 34.0486 54.9334 33.9632 54.905L29.6998 52.8869L27.3405 56.9798C27.312 57.0369 27.2552 57.0937 27.17 57.0937ZM27.7953 46.8328L27.3974 56.0706L29.4155 52.5177C29.4724 52.4325 29.5861 52.3755 29.6714 52.4325L33.3664 54.1947L27.7953 46.8328Z" fill="#22213F"/>
<path d="M28.9039 35.719C31.2631 37.1118 32.6557 39.6983 32.5137 42.4271L32.2578 47.2307L29.2449 45.9515L28.9039 35.719Z" fill="#2A395B"/>
<path d="M32.2863 47.4581C32.2578 47.4581 32.2294 47.4581 32.2011 47.4296L29.1882 46.1504C29.1029 46.1219 29.0745 46.0367 29.0745 45.9799L28.7335 35.7473C28.7335 35.662 28.762 35.6051 28.8188 35.5768C28.8757 35.5483 28.961 35.5483 29.0179 35.5768C31.4623 36.998 32.8834 39.6414 32.7414 42.4837L32.4857 47.2874C32.4857 47.3442 32.4572 47.401 32.4005 47.4579C32.3715 47.4296 32.3146 47.4581 32.2863 47.4581ZM29.4723 45.8093L32.1157 46.9463L32.3431 42.4269C32.4853 39.8688 31.263 37.4811 29.1312 36.0884L29.4723 45.8093Z" fill="#22213F"/>
<path d="M21.002 41.4605C22.2243 45.326 25.4646 47.998 27.3973 49.2769C28.1649 49.7886 29.2164 49.476 29.5575 48.5948C30.3819 46.4346 31.5471 42.3983 30.325 38.5328C29.0744 34.5819 25.6636 31.9101 23.816 30.6026C22.7643 29.8636 22.2243 30.233 21.8547 31.2279C21.0304 33.3597 19.7514 37.4812 21.002 41.4605Z" fill="#3A4668"/>
<path d="M26.3456 40.0962C26.3456 40.0962 28.9605 42.7396 28.8185 46.9748C28.8185 46.9748 26.4878 46.3778 25.2372 44.0471C24.0434 41.9155 26.3456 40.0962 26.3456 40.0962Z" fill="#2A395B"/>
<path d="M28.1932 49.732C27.8805 49.732 27.5394 49.6468 27.2837 49.4478C25.4077 48.1686 22.0536 45.4685 20.8315 41.5176C19.6661 37.7941 20.6324 33.8431 21.6559 31.1714C21.8832 30.546 22.196 30.205 22.5654 30.0913C22.935 29.9776 23.3898 30.0913 23.9297 30.4609C27.3974 32.8484 29.6146 35.5487 30.5241 38.4764C31.7747 42.4273 30.5809 46.5488 29.7566 48.6806C29.586 49.1639 29.1881 49.505 28.7048 49.647C28.5343 49.7035 28.3637 49.732 28.1932 49.732ZM21.2009 41.4037C22.3947 45.2409 25.6635 47.8844 27.5111 49.1065C27.8238 49.3339 28.2217 49.3907 28.5911 49.2487C28.9607 49.135 29.245 48.8508 29.387 48.5097C30.1828 46.4347 31.3483 42.3986 30.1545 38.5897C29.2733 35.7474 27.0848 33.1323 23.7023 30.7733C23.2759 30.489 22.9348 30.3753 22.7074 30.4605C22.4515 30.5459 22.2527 30.8016 22.0536 31.3132C21.0304 33.9 20.064 37.7655 21.2009 41.4037Z" fill="#22213F"/>
<path d="M28.7902 47.1739C28.7617 47.1739 28.7617 47.1739 28.7334 47.1739C28.648 47.1454 26.3173 46.5486 25.0098 44.161C23.7592 41.8872 26.1753 39.9544 26.2036 39.9544C26.289 39.8976 26.4027 39.8976 26.4595 39.9829C26.5732 40.0966 29.1313 42.7401 28.9893 47.0035C28.9893 47.0604 28.9608 47.1172 28.9039 47.1457C28.8754 47.1739 28.8471 47.1739 28.7902 47.1739ZM26.3173 40.3805C25.834 40.8069 24.4697 42.2849 25.3792 43.9618C26.3456 45.7526 27.9942 46.4916 28.5912 46.6904C28.6197 43.2798 26.8289 40.949 26.3173 40.3805Z" fill="#22213F"/>
<path d="M21.4568 38.9025C21.1441 38.9025 20.8315 38.9025 20.4904 38.874C20.3767 38.874 20.2914 38.7603 20.2914 38.6466C20.2914 38.5329 20.4051 38.4476 20.5188 38.4476C26.033 38.874 28.6195 35.321 28.6195 35.2925C28.6763 35.2071 28.8185 35.1788 28.9037 35.2357C28.9891 35.2925 29.0174 35.4347 28.9606 35.5199C28.9322 35.5769 26.5162 38.9025 21.4568 38.9025Z" fill="#22213F"/>
<path d="M31.5365 45.7811C31.508 45.7811 31.508 45.7811 31.4796 45.7811L30.6553 45.5252C30.5416 45.4967 30.4847 45.383 30.5131 45.2693C30.5416 45.1556 30.6553 45.0987 30.769 45.1271L31.5933 45.383C31.707 45.4115 31.7639 45.5252 31.7355 45.6387C31.6785 45.7242 31.6217 45.7811 31.5365 45.7811Z" fill="#22213F"/>
<path d="M31.6785 44.5306C31.65 44.5306 31.65 44.5306 31.6216 44.5306L30.8541 44.3316C30.7404 44.3031 30.6836 44.1894 30.7119 44.0757C30.7404 43.962 30.8541 43.9051 30.9678 43.9335L31.7353 44.1325C31.849 44.161 31.9059 44.2747 31.8775 44.3884C31.849 44.4453 31.7638 44.5306 31.6785 44.5306Z" fill="#22213F"/>
<path d="M31.9061 43.2515H31.8776L30.9681 43.1093C30.8544 43.0808 30.769 42.9956 30.7975 42.8819C30.826 42.7682 30.9112 42.6828 31.0249 42.7113L31.9345 42.8535C32.0481 42.8821 32.1335 42.9672 32.105 43.0809C32.105 43.1663 32.0198 43.2515 31.9061 43.2515Z" fill="#22213F"/>
<path d="M31.7354 41.7733L30.9964 41.6881C30.8827 41.6881 30.7973 41.5744 30.8258 41.4607C30.8258 41.347 30.9395 41.2617 31.0532 41.2902L31.7639 41.3754C31.8776 41.3754 31.963 41.4891 31.9344 41.6028C31.9344 41.688 31.8491 41.7733 31.7354 41.7733Z" fill="#22213F"/>
<path d="M31.5365 40.4942L30.8826 40.4657C30.769 40.4657 30.6836 40.352 30.6836 40.2667C30.6836 40.153 30.7973 40.0676 30.8826 40.0676L31.5365 40.0961C31.6502 40.0961 31.7355 40.2098 31.7355 40.2952C31.7353 40.4091 31.6502 40.4942 31.5365 40.4942Z" fill="#22213F"/>
<path d="M31.3091 39.2721C31.2806 39.2721 31.2806 39.2721 31.3091 39.2721L30.6269 39.1869C30.5132 39.1869 30.4279 39.0732 30.4564 38.9595C30.4564 38.8458 30.5701 38.7605 30.6838 38.789L31.3376 38.8742C31.4513 38.8742 31.5367 38.9879 31.5081 39.1016C31.4796 39.1867 31.3943 39.2721 31.3091 39.2721Z" fill="#22213F"/>
<path d="M23.1339 40.4372C22.7928 40.4372 22.4517 40.3236 22.1675 40.0677C22.0821 39.9825 22.0821 39.8686 22.1675 39.7834C22.2528 39.6982 22.3665 39.6982 22.4517 39.7834C23.3329 40.6078 24.6404 39.357 24.6687 39.357C24.7256 39.3001 24.8393 39.2718 24.9246 39.3285C25.2088 39.5275 25.4931 39.6127 25.8058 39.5275C26.5165 39.3853 26.9996 38.5326 26.9996 38.5326C27.0564 38.4474 27.1418 38.4189 27.227 38.4474C27.4829 38.5043 27.7103 38.476 27.9091 38.3623C28.3924 38.0495 28.5061 37.1968 28.5061 37.1968C28.5346 37.0831 28.6198 36.9978 28.7335 37.0263C28.8472 37.0548 28.9325 37.14 28.904 37.2537C28.904 37.2822 28.7618 38.2769 28.1082 38.7033C27.8523 38.8739 27.5681 38.9307 27.2555 38.8739C27.0564 39.1581 26.5733 39.7834 25.8627 39.9256C25.4931 40.0108 25.152 39.9541 24.8109 39.7551C24.4128 40.0393 23.7592 40.4372 23.1339 40.4372Z" fill="#22213F"/>
<path d="M28.1649 41.4322C27.9944 41.4322 27.8238 41.3754 27.6533 41.29C27.5679 41.2332 27.5111 41.1195 27.5679 41.0058C27.6248 40.9206 27.7385 40.8636 27.8522 40.9206C28.0227 41.0058 28.1932 41.0343 28.3638 40.9775C28.9322 40.7784 29.387 39.8974 29.387 39.8974C29.4439 39.7837 29.5575 39.7552 29.6712 39.8122C29.7849 39.8691 29.8134 39.9828 29.7566 40.0964C29.7281 40.125 29.245 41.1482 28.506 41.3756C28.3923 41.4037 28.2786 41.4322 28.1649 41.4322Z" fill="#22213F"/>
<path d="M22.9632 43.1094C22.9063 43.1094 22.8778 43.1094 22.821 43.1094C22.5082 43.0809 22.2808 42.9104 22.082 42.5978C22.0251 42.5126 22.0535 42.3704 22.1388 42.3136C22.2242 42.2567 22.3662 42.2851 22.423 42.3704C22.5367 42.5695 22.6789 42.6832 22.8495 42.6832C23.2474 42.74 23.7875 42.3421 23.9296 42.1716C24.0149 42.0864 24.1286 42.0864 24.2138 42.1716C24.2991 42.2567 24.2991 42.3706 24.2138 42.4558C24.214 42.5125 23.5887 43.1094 22.9632 43.1094Z" fill="#22213F"/>
<path d="M29.3302 43.6494C29.188 43.6494 29.0459 43.6208 28.8469 43.5071C28.7615 43.4503 28.7047 43.3366 28.7615 43.2229C28.8184 43.1377 28.9321 43.0807 29.0458 43.1377C29.2163 43.2229 29.3585 43.2514 29.4722 43.1946C29.7281 43.0809 29.8701 42.683 29.8986 42.5408C29.9271 42.4271 30.0408 42.3702 30.1545 42.3986C30.2682 42.4271 30.3251 42.5408 30.2967 42.6543C30.2682 42.7395 30.1262 43.3933 29.6429 43.5923C29.5576 43.621 29.4439 43.6494 29.3302 43.6494Z" fill="#22213F"/>
<path d="M24.2139 45.7242C24.0717 45.7242 23.9012 45.6674 23.7592 45.582C23.6738 45.5252 23.617 45.4115 23.6738 45.2978C23.7307 45.2124 23.8444 45.1556 23.9581 45.2124C24.1003 45.2978 24.2139 45.3261 24.2991 45.2693C24.4413 45.2124 24.4982 45.0134 24.5265 44.9565C24.555 44.8429 24.6687 44.786 24.7824 44.8143C24.8961 44.8427 24.953 44.9565 24.9246 45.0417C24.9246 45.0986 24.8109 45.4965 24.4698 45.6387C24.3845 45.6957 24.2991 45.7242 24.2139 45.7242Z" fill="#22213F"/>
<path d="M32.1441 54.0239C32.0873 54.0239 32.0019 53.9954 31.9736 53.9387L28.847 49.391C28.7902 49.3058 28.8185 49.1636 28.9039 49.1067C28.9892 49.0499 29.1313 49.0782 29.1881 49.1636L32.2863 53.683C32.3432 53.7682 32.3149 53.9104 32.2295 53.9672C32.201 53.9954 32.1725 54.0239 32.1441 54.0239Z" fill="#22213F"/>
<path d="M28.5343 54.7345C28.4206 54.7345 28.3352 54.6493 28.3352 54.5355L28.1647 49.5328C28.1647 49.4191 28.25 49.3337 28.3637 49.3337C28.4774 49.3337 28.5628 49.4189 28.5628 49.5328L28.7333 54.5355C28.7333 54.6208 28.648 54.7062 28.5343 54.7345Z" fill="#22213F"/>
<path d="M29.6144 52.8302C29.529 52.8302 29.4438 52.7733 29.4153 52.688L28.5341 49.4761C28.5056 49.3624 28.5626 49.2487 28.6763 49.2202C28.79 49.1916 28.9037 49.2487 28.9322 49.3624L29.8134 52.5743C29.8419 52.688 29.7849 52.8017 29.6712 52.83C29.6429 52.8302 29.6429 52.8302 29.6144 52.8302Z" fill="#22213F"/>
<path d="M35.5266 52.0629C34.7307 52.3757 33.7643 52.7736 32.7694 53.0862C31.4334 53.5126 30.0408 53.7968 28.9607 53.5126C28.2217 53.3136 27.6247 52.8588 27.3405 51.9778C27.2268 47.4869 37.3173 45.7813 36.3224 41.0914C36.2087 40.6081 36.0382 39.9828 35.7823 39.2438C34.418 35.3497 31.3197 28.6985 31.3197 28.6985L35.0148 26.9363C35.0716 26.9931 35.1285 27.05 35.1853 27.1068C46.1287 37.3394 47.9761 46.3781 35.5266 52.0629Z" fill="#8196C9"/>
<path d="M35.5266 52.0626C34.7308 52.3753 33.7644 52.7732 32.7695 53.0858C42.7178 48.5949 44.338 42.8248 41.7229 37.4812C39.1363 32.1375 34.0769 27.5612 34.0769 27.5612L35.2139 27.1064C46.1287 37.339 47.9762 46.3777 35.5266 52.0626Z" fill="#6A88C4"/>
<path d="M35.5266 45.44C32.5705 47.9412 26.8005 51.068 28.9607 53.5407C28.2217 53.3417 27.6247 52.8869 27.3405 52.0059C27.2268 47.515 37.3173 45.8094 36.3224 41.1195C36.2087 40.6362 36.0382 40.0109 35.7823 39.2719C35.8108 39.2436 38.4826 42.9102 35.5266 45.44Z" fill="#91AADB"/>
<path d="M29.9271 53.8536C29.1312 53.8536 28.3922 53.6545 27.8521 53.1997C27.2551 52.6596 27.0278 51.8069 27.2836 51.0111C27.8238 49.2488 29.8417 47.9413 31.7745 46.6622C34.2758 45.042 36.6066 43.4788 36.1234 41.1764C35.9243 40.1815 35.2707 38.391 34.2189 35.8612C34.1904 35.7475 34.2189 35.6338 34.3326 35.6053C34.4463 35.5768 34.56 35.6053 34.5885 35.719C35.6403 38.2771 36.2939 40.0962 36.493 41.1196C37.0331 43.6777 34.4465 45.3831 31.9452 47.0318C30.0693 48.2824 28.108 49.5616 27.6249 51.1533C27.4258 51.8071 27.5964 52.4892 28.0797 52.9155C29.5577 54.2515 32.9401 52.9155 35.1856 52.006L35.413 51.9208C40.4157 49.6469 43.2295 46.7192 43.798 43.2516C44.537 38.7607 41.5241 33.3316 34.8729 27.1354C34.7877 27.05 34.7877 26.9363 34.8729 26.8511C34.9581 26.7658 35.072 26.7658 35.1571 26.8511C41.922 33.1328 44.9634 38.6754 44.2244 43.3084C43.6274 46.9183 40.7283 49.9311 35.6121 52.2904L35.3847 52.3755C33.7926 52.9723 31.6608 53.8536 29.9271 53.8536Z" fill="#5464B5"/>
<path d="M23.0768 44.701C20.803 45.6959 18.7565 46.3212 16.9657 46.6338C15.7435 46.8328 14.635 46.8897 13.6401 46.776C8.2964 46.2644 6.47731 41.6313 8.89337 35.4917C11.1104 29.8354 17.5342 24.0369 17.5342 24.0369L18.586 24.719L20.3199 25.8559C20.3199 25.8559 15.5731 37.2254 16.0564 37.9361C18.4156 41.3754 25.5499 35.5485 28.705 38.7888C30.2113 41.6596 25.6634 43.5641 23.0768 44.701Z" fill="#8196C9"/>
<path d="M23.0768 44.7009C20.803 45.6958 18.7565 46.3212 16.9658 46.6337C22.5369 45.0135 29.5575 41.2048 27.17 39.5846C24.7824 37.9644 22.0253 40.0962 19.0407 39.8973C16.0562 39.6983 16.0562 37.9645 16.0562 37.9645C18.4154 41.4038 25.5498 35.577 28.7048 38.8172C30.2113 41.6596 25.6634 43.564 23.0768 44.7009Z" fill="#6A88C4"/>
<path d="M18.6145 24.7477L18.444 24.7192C18.444 24.7192 11.2243 30.6314 9.74632 37.8509C8.41034 44.4167 12.816 46.4917 13.6404 46.8043C8.29664 46.2927 6.47756 41.6596 8.89362 35.52C11.1106 29.8637 17.5345 24.0652 17.5345 24.0652L18.6145 24.7477Z" fill="#91AADB"/>
<path d="M14.6636 47.0316C12.4749 47.0316 10.7127 46.4347 9.46204 45.2694C7.33021 43.2229 7.04598 39.6414 8.69453 35.4348C10.9115 29.8068 17.3354 23.9516 17.3922 23.8948C17.4776 23.8094 17.5913 23.8379 17.6764 23.9233C17.7618 24.0086 17.7333 24.1223 17.6479 24.2075C17.5911 24.2644 11.2241 30.0344 9.06394 35.577C7.47224 39.6131 7.72797 43.0524 9.71777 44.9568C12.1907 47.316 16.9943 47.1455 22.9632 44.5304L23.1906 44.4452C25.3507 43.4788 28.9606 41.8871 28.79 39.7553C28.7332 39.2437 28.4489 38.7604 27.9657 38.4762C26.4591 37.5666 24.2706 38.1351 22.1388 38.6467C19.5807 39.3005 17.1361 39.8973 15.8855 38.0497C15.7718 37.8792 15.5444 37.5381 17.6194 32.0523C17.6479 31.9386 17.79 31.8818 17.8753 31.9386C17.989 31.9671 18.0459 32.1092 17.989 32.1945C16.1983 36.9413 16.1699 37.7088 16.2268 37.8225C17.3069 39.4142 19.6092 38.8457 22.0253 38.2204C24.214 37.6803 26.4878 37.1118 28.1364 38.0782C28.7334 38.4193 29.1028 39.0163 29.1596 39.6699C29.3587 42.086 25.7203 43.6777 23.3042 44.7578L23.0769 44.843C19.9503 46.321 17.0795 47.0316 14.6636 47.0316Z" fill="#5464B5"/>
<path d="M19.325 81.8225C19.2965 81.8225 19.2682 81.8225 19.2113 81.8225C19.126 81.8225 19.0123 81.8225 18.8417 81.8225H10.2863C9.60411 81.8225 9.00712 81.5098 8.63771 80.9413C8.29663 80.3443 8.23978 79.7759 8.41032 79.2074C8.8651 77.8714 10.7695 76.9335 12.4181 76.2797C11.6791 75.1428 8.1546 69.0886 9.51892 59.8224C9.54743 59.7087 9.63261 59.6519 9.7463 59.6519C9.86 59.6804 9.91685 59.7656 9.91685 59.8792C8.43884 69.8844 12.7308 76.0523 12.8729 76.2229C12.9014 76.2514 12.9297 76.2797 12.9297 76.3366C12.9297 76.4217 12.9012 76.5071 12.816 76.5356C11.3095 77.1326 9.23469 78.0705 8.80825 79.3211C8.63771 79.7759 8.69456 80.2306 8.97879 80.7139C9.26302 81.1404 9.74631 81.3961 10.2863 81.3961C10.2863 81.3961 19.1545 81.3961 19.2113 81.3961C21.2578 81.4814 23.1623 78.4115 23.7022 77.4737C23.7591 77.3885 23.8727 77.3315 23.9581 77.3885C24.0435 77.4453 24.1003 77.559 24.0435 77.6442C23.5033 78.6674 21.542 81.8225 19.325 81.8225Z" fill="#5464B5"/>
<path d="M33.7075 75.6829C31.7462 76.8483 29.2735 77.5588 26.1752 77.6157C23.3329 77.6442 19.4388 77.5588 15.1469 75.3418C15.3174 75.3987 23.674 77.7862 30.4957 75.0007L33.7075 75.6829Z" fill="#6A88C4"/>
<path d="M25.4077 77.8146C24.8676 77.8146 24.356 77.8147 23.8444 77.7861C21.5988 77.6725 18.1881 77.3029 14.4077 75.1712C14.3097 75.1018 14.2938 74.9436 14.3792 74.8585C14.436 74.8016 14.5497 74.7733 14.6351 74.83C18.3586 76.9333 21.6842 77.3029 23.9012 77.388C24.6119 77.4166 25.3792 77.4165 26.2036 77.4165C29.1596 77.3597 31.6893 76.7627 33.7927 75.5975C33.8778 75.5406 34.0201 75.569 34.0486 75.6826C34.1054 75.7678 34.0771 75.91 33.9634 75.9385C31.8316 77.1323 29.2166 77.7576 26.2038 77.8145C25.9193 77.8147 25.6634 77.8146 25.4077 77.8146Z" fill="#5464B5"/>
<path d="M37.9142 81.4244C37.2035 81.0833 36.7204 80.2875 36.9478 79.4062C37.232 78.2693 37.829 76.9618 38.9943 75.569H38.9657C38.9657 75.569 36.0381 76.5923 30.9219 75.1142C30.9219 75.1142 36.9193 75.8818 40.4723 74.0625C40.4439 74.1479 36.5213 80.4295 37.9142 81.4244Z" fill="#91AADB"/>
<path d="M38.6817 81.794C38.3974 81.794 38.1132 81.7371 37.829 81.5949C36.9763 81.197 36.5499 80.2589 36.7772 79.3494C37.0615 78.1556 37.6584 76.9902 38.5111 75.9101C37.3174 76.166 34.3328 76.5071 29.8988 75.0006C29.7851 74.972 29.7283 74.8584 29.7851 74.7447C29.8136 74.631 29.9273 74.5741 30.041 74.631C35.6121 76.5069 38.9376 75.3985 38.9661 75.37C38.9946 75.37 39.0229 75.37 39.0514 75.37H39.08C39.1651 75.37 39.2222 75.4268 39.2505 75.4837C39.279 75.5405 39.279 75.6259 39.222 75.6827C38.1988 76.8765 37.5449 78.1271 37.2038 79.4346C37.0048 80.2873 37.4881 80.9694 38.0565 81.2253C38.5398 81.4527 39.0798 81.4244 39.5346 81.1402L47.209 76.5639C47.2942 76.5071 47.3512 76.4787 47.4364 76.4217C48.2039 75.9384 49.2555 75.1426 49.2555 74.1479C49.2555 73.0961 48.2606 71.4476 46.8679 69.202C44.7646 65.8196 41.4773 60.5362 39.4308 53.3448C39.4023 53.2312 39.2872 52.7099 39.4009 52.6531C39.5146 52.6246 39.6904 53.0239 39.7472 53.1376C41.7937 60.2719 45.1625 65.6207 47.2375 69.0032C48.6587 71.3055 49.6819 72.9824 49.6819 74.1479C49.6819 75.3416 48.545 76.1943 47.6923 76.7345C47.6071 76.7913 47.5501 76.8196 47.4649 76.8767L39.7905 81.4529C39.3638 81.6803 39.0228 81.794 38.6817 81.794Z" fill="#5464B5"/>
<path d="M37.63 81.4246C37.5163 81.4246 37.4309 81.3395 37.4309 81.2256C37.4309 81.1971 37.4309 80.3161 37.6014 79.8328C37.63 79.7191 37.7436 79.6622 37.8573 79.6906C37.971 79.7189 38.0279 79.8328 37.9995 79.9465C37.8573 80.3729 37.8573 81.1971 37.8573 81.2256C37.829 81.3393 37.7437 81.4246 37.63 81.4246Z" fill="#5464B5"/>
<path d="M38.5963 81.7724H38.5678C38.4541 81.7439 38.3687 81.6587 38.3973 81.545L38.5963 80.209C38.6248 80.0953 38.71 80.01 38.8237 80.0385C38.9374 80.067 39.0227 80.1522 38.9942 80.2659L38.7952 81.6019C38.7669 81.6872 38.6817 81.7724 38.5963 81.7724Z" fill="#5464B5"/>
<path d="M39.7048 81.4246H39.6763C39.5626 81.3961 39.5058 81.3109 39.5058 81.1972L39.6763 80.174C39.7048 80.0603 39.79 80.0034 39.9037 80.0034C40.0174 80.0319 40.0743 80.1171 40.0743 80.2308L39.9037 81.254C39.9037 81.3392 39.8185 81.4246 39.7048 81.4246Z" fill="#5464B5"/>
<path d="M15.63 77.1039C15.6015 77.1039 15.5731 77.1039 15.5731 77.1039C13.8109 76.4218 12.6946 76.5477 12.6946 76.5477C12.5809 76.5762 12.6171 76.507 12.5888 76.3933C12.5605 76.2796 12.6456 76.1942 12.7593 76.1659C12.8162 76.1659 13.8679 75.9953 15.7154 76.706C15.829 76.7345 15.8575 76.8482 15.829 76.9619C15.772 77.0471 15.7152 77.1039 15.63 77.1039Z" fill="#5464B5"/>
<path d="M38.9942 75.7683C38.9374 75.7683 38.9091 75.7398 38.8805 75.7114C38.7954 75.6546 38.7954 75.5124 38.852 75.4272C38.9089 75.3703 40.188 73.8355 41.7512 73.1817C41.8649 73.1532 41.9786 73.1817 42.0071 73.2954C42.0356 73.4091 42.0071 73.5228 41.8934 73.5511C40.4154 74.1764 39.117 75.8124 39.0887 75.8409C39.0887 75.8409 39.0511 75.7683 38.9942 75.7683Z" fill="#5464B5"/>
<path d="M11.6506 9.3133C11.0536 10.3082 11.3378 11.5872 12.3327 12.1841C13.1002 12.6674 14.0381 12.5821 14.7203 12.0704C14.9193 11.9282 15.0899 11.7294 15.2036 11.5303C15.8005 10.5354 15.5163 9.25646 14.5214 8.65948C14.4077 8.57413 14.2655 8.51728 14.1518 8.46043C13.2423 8.11953 12.1907 8.4606 11.6506 9.3133Z" fill="#8196C9"/>
<path d="M12.4463 9.79669C12.1053 10.3652 12.2758 11.0758 12.8159 11.4169C13.2424 11.6728 13.7823 11.6443 14.1519 11.3315C14.2656 11.2462 14.351 11.1325 14.4361 11.0188C14.7772 10.4503 14.6067 9.73967 14.0666 9.39859C14.0097 9.34174 13.9244 9.31323 13.8392 9.28489C13.3276 9.11453 12.7306 9.31341 12.4463 9.79669Z" fill="#6A88C4"/>
<path d="M13.4413 12.7242C13.0149 12.7242 12.5886 12.6105 12.219 12.3832C11.139 11.701 10.7979 10.2798 11.48 9.19976C11.7928 8.68814 12.3044 8.31854 12.9012 8.17651C13.4982 8.03431 14.1235 8.148 14.6351 8.46075C15.1467 8.77349 15.5163 9.28511 15.6583 9.88191C15.8004 10.4787 15.6869 11.1042 15.3741 11.6158C15.0614 12.1274 14.5497 12.497 13.9529 12.6391C13.7824 12.6957 13.6119 12.7242 13.4413 12.7242ZM13.4413 8.54593C12.816 8.54593 12.1907 8.85868 11.8496 9.42714C11.3095 10.3083 11.5654 11.4736 12.4466 12.0137C12.873 12.2696 13.3847 12.3548 13.8678 12.2411C14.3509 12.1274 14.7773 11.8147 15.0332 11.3884C15.2891 10.962 15.3743 10.4504 15.2606 9.96727C15.1469 9.48399 14.8342 9.05772 14.4079 8.80183C14.1235 8.63111 13.7824 8.54593 13.4413 8.54593Z" fill="#5464B5"/>
<path d="M41.8367 16.1351C41.2397 17.13 41.524 18.4089 42.5189 19.0059C43.2864 19.4892 44.2243 19.4038 44.9064 18.8922C45.1055 18.75 45.276 18.5511 45.3897 18.3521C45.9867 17.3572 45.7025 16.0782 44.7076 15.4813C44.5939 15.3959 44.4517 15.3391 44.338 15.2822C43.4284 14.9413 42.3767 15.2824 41.8367 16.1351Z" fill="#8196C9"/>
<path d="M42.6609 16.6465C42.3198 17.1866 42.4903 17.8688 43.0305 18.2098C43.4569 18.4657 43.9685 18.4089 44.3096 18.153C44.4233 18.0676 44.5087 17.9825 44.5655 17.8688C44.9066 17.3286 44.736 16.6465 44.1959 16.3054C44.1391 16.2769 44.0537 16.22 43.9969 16.1917C43.5136 15.9928 42.9451 16.1917 42.6609 16.6465Z" fill="#6A88C4"/>
<path d="M43.6273 19.5461C43.2009 19.5461 42.7746 19.4324 42.405 19.205C41.3249 18.5228 40.9839 17.1017 41.666 16.0216C42.3482 14.9415 43.7693 14.6004 44.8494 15.2826C45.361 15.5953 45.7306 16.107 45.8727 16.7038C46.0149 17.3007 45.9012 17.926 45.5884 18.4377C45.2757 18.9493 44.7641 19.3189 44.1673 19.4609C43.9684 19.5176 43.7978 19.5461 43.6273 19.5461ZM43.6273 15.3678C43.002 15.3678 42.3767 15.6805 42.0356 16.249C41.4955 17.1302 41.7514 18.2955 42.6326 18.8356C43.059 19.0915 43.5706 19.1767 44.0537 19.063C44.537 18.9493 44.9633 18.6365 45.2192 18.2103C45.4751 17.784 45.5603 17.2722 45.4466 16.7891C45.3329 16.3058 45.0201 15.8796 44.5939 15.6237C44.3095 15.4529 43.9684 15.3678 43.6273 15.3678Z" fill="#5464B5"/>
<path d="M12.3612 13.719C12.0485 15.5666 12.3897 17.3003 13.1002 18.9205C13.7255 20.2849 14.6351 21.564 15.7152 22.7009C18.4438 25.5718 22.2242 27.5614 24.7823 28.1298C28.591 28.9825 35.8675 28.8974 39.4773 26.1971C39.7047 25.998 39.9321 25.7991 40.1595 25.6286C40.2732 25.5149 40.4154 25.4012 40.5291 25.2875C46.7539 19.2901 42.3198 13.6053 35.299 10.3934C32.7978 9.25647 29.9553 8.43212 27.1415 8.00586C20.2345 6.98262 13.5833 8.43229 12.3612 13.719Z" fill="#8196C9"/>
<path d="M39.3921 23.4117L40.1312 25.6288C40.2448 25.5151 40.387 25.4014 40.5007 25.2877C46.7255 19.2903 42.2915 13.6055 35.2707 10.3936C35.5266 10.5358 45.4749 16.2489 39.3921 23.4117Z" fill="#91AADB"/>
<path d="M19.4955 16.0499C19.126 17.5847 19.8935 19.1196 21.2009 19.4607C22.5084 19.8303 23.8727 18.8637 24.2423 17.3289C24.6119 15.794 23.8444 14.2591 22.5369 13.9181C21.2295 13.577 19.8651 14.515 19.4955 16.0499Z" fill="white"/>
<path d="M20.3767 16.4761C20.1208 17.471 20.6326 18.4657 21.4853 18.6931C22.338 18.9205 23.2192 18.2952 23.4749 17.3003C23.7308 16.3054 23.219 15.3106 22.3663 15.0833C21.5136 14.856 20.6324 15.4814 20.3767 16.4761Z" fill="#22213F"/>
<path d="M21.741 19.7448C21.542 19.7448 21.3431 19.7163 21.1441 19.6594C19.7229 19.2898 18.8985 17.6413 19.2965 15.9927C19.4955 15.1401 20.0355 14.401 20.7176 14.0031C21.2861 13.662 21.9682 13.5767 22.5652 13.7189C23.9864 14.0885 24.8107 15.737 24.4128 17.3856C24.2138 18.2383 23.6738 18.9773 22.9916 19.3752C22.5937 19.6311 22.1673 19.7448 21.741 19.7448ZM19.666 16.1066C19.325 17.5278 20.0071 18.9775 21.2294 19.29C21.741 19.4322 22.3095 19.3469 22.7928 19.0626C23.3897 18.693 23.8445 18.0677 24.0434 17.3004C24.3845 15.8792 23.7023 14.4296 22.48 14.117C21.9684 13.9748 21.3999 14.0601 20.9167 14.3444C20.3199 14.6855 19.8651 15.3391 19.666 16.1066Z" fill="#5464B5"/>
<path d="M22.9917 15.9362C23.2191 16.0784 23.2759 16.3057 23.1622 16.4763C23.02 16.6468 22.7358 16.6468 22.5084 16.5331C22.281 16.3909 22.2242 16.1635 22.3379 15.993C22.4801 15.8508 22.7643 15.8225 22.9917 15.9362Z" fill="white"/>
<path d="M12.3612 13.7191C12.0485 15.5667 12.3897 17.3004 13.1002 18.9206C13.7255 20.285 14.6351 21.5641 15.7152 22.701C15.9142 21.4219 15.6298 19.8019 14.6634 17.8121C10.0872 8.48906 27.0846 8.00577 27.0846 8.00577C20.2345 6.98271 13.5833 8.43238 12.3612 13.7191Z" fill="#6A88C4"/>
<path d="M29.7566 28.8122C27.8522 28.8122 26.0899 28.6131 24.7539 28.3289C19.7229 27.192 10.9684 21.1661 12.1907 13.6907C13.015 10.1377 16.2836 7.97751 21.4285 7.57958C29.4724 6.95427 40.7283 10.9904 43.201 17.1016C44.0823 19.2618 44.1674 22.6159 39.5912 26.3678C37.1751 28.1867 33.2527 28.8122 29.7566 28.8122ZM12.5601 13.7758C11.3947 20.9955 19.9218 26.8507 24.8391 27.9593C28.7047 28.8405 35.896 28.67 39.3637 26.0549C42.803 23.2125 44.0251 20.1712 42.8313 17.2435C40.4152 11.2744 29.3585 7.35202 21.4567 7.97733C16.511 8.34692 13.3276 10.4219 12.5601 13.7758Z" fill="#5464B5"/>
<path d="M13.0434 18.9207C14.9193 23.0705 19.4956 26.2541 23.0202 27.5899C23.6172 27.8173 24.214 27.9878 24.7256 28.13C25.3794 28.2722 26.1468 28.3859 26.9711 28.4711C30.9504 28.869 36.4363 28.4142 39.3923 26.1687C39.7619 25.856 40.103 25.5717 40.4156 25.2592L40.3587 25.0886C40.3587 25.0886 40.103 24.2928 39.3638 23.3832C38.71 22.5305 37.6299 21.621 36.0667 21.1662C32.8548 20.2567 32.1443 21.7347 28.3923 21.1662L27.028 20.6829H26.9995H26.971L25.5213 20.5407C21.8831 19.4321 21.8831 17.7836 18.5858 17.2151C16.9656 16.9309 15.6013 17.3288 14.6349 17.7836C13.7256 18.267 13.1286 18.8355 13.0434 18.9207Z" fill="#E6ECFF"/>
<path d="M26.9709 28.4709C30.9502 28.8688 36.4361 28.4141 39.3922 26.1685C39.7617 25.8558 40.1028 25.5716 40.4154 25.259L40.3586 25.0885C40.3586 25.0885 40.1028 24.2926 39.3637 23.3831C39.3922 23.4114 36.635 27.1349 26.9709 28.4709Z" fill="#F5F8FF"/>
<path d="M13.0434 18.9205C14.9193 23.0703 19.4956 26.2539 23.0202 27.5897C23.0202 27.5897 23.0202 27.5897 22.9917 27.5612C16.511 22.6439 14.6351 17.7834 14.6351 17.7834C13.7255 18.2669 13.1286 18.8354 13.0434 18.9205Z" fill="#C7D1EA"/>
<path d="M29.6998 28.8122C27.7953 28.8122 26.0331 28.6131 24.6971 28.3289C21.2863 27.5614 15.2035 24.0369 12.9012 18.9205C12.8727 18.8352 12.8727 18.75 12.9297 18.6931C13.015 18.6078 15.2321 16.4476 18.6429 17.0446C20.4051 17.3573 21.2578 17.9541 22.1673 18.608C23.02 19.2049 23.8727 19.8302 25.5781 20.3419L26.9709 20.4841C26.9995 20.4841 27.0278 20.4841 27.0563 20.4841H27.0848L28.4491 20.9673C30.2114 21.2232 31.2631 21.0527 32.2863 20.8537C33.3949 20.6546 34.4182 20.4557 36.1519 20.939C39.5059 21.8771 40.5291 24.8614 40.5859 24.9751L40.6428 25.1457C40.6713 25.231 40.6428 25.3162 40.5859 25.373C40.2732 25.6858 39.9038 25.9983 39.5342 26.2826C37.1183 28.1583 33.1959 28.8122 29.6998 28.8122ZM13.2991 18.8922C15.6015 23.8095 21.4852 27.192 24.7823 27.931C28.6478 28.8122 35.8392 28.6416 39.3068 26.0265C39.6195 25.7706 39.9321 25.4864 40.2164 25.2307L40.1878 25.1738C40.1878 25.1453 39.1646 22.2461 36.0095 21.3651C34.3893 20.9103 33.4229 21.0809 32.3145 21.2797C31.3196 21.4503 30.1827 21.6777 28.3353 21.3934H28.3068L26.9424 20.9101L25.4928 20.7679H25.4642C23.6735 20.2278 22.7356 19.5457 21.9113 18.9489C21.0017 18.295 20.2342 17.7266 18.5573 17.4423C15.7152 16.9309 13.7539 18.4943 13.2991 18.8922Z" fill="#5464B5"/>
<path d="M24.4982 19.4893C24.2708 20.4557 25.5214 22.3601 26.6869 22.6158C27.0846 22.6659 27.4544 22.6158 27.5681 22.5875C28.6482 22.3316 29.8419 21.4506 30.0125 20.7116C30.2399 19.7452 29.1881 19.0062 27.5681 18.6366C26.4595 18.3807 25.5499 18.4375 24.9815 18.7788C24.8961 18.8356 24.8393 18.8925 24.7541 18.9493C24.6402 19.0912 24.5265 19.2902 24.4982 19.4893Z" fill="#22213F"/>
<path d="M25.0098 18.7786C25.0098 18.7786 27.3405 18.5795 28.7901 19.8303C29.8702 20.7684 27.5679 22.5875 27.5679 22.5875C28.6479 22.3316 29.8417 21.4505 30.0123 20.7115C30.2396 19.7451 29.1879 19.0061 27.5679 18.6365C26.4878 18.409 25.5497 18.4375 25.0098 18.7786Z" fill="#3A4668"/>
<path d="M29.9271 24.7759C28.847 24.7759 27.5964 24.3494 26.4595 22.9568C26.3741 22.8714 26.4026 22.7294 26.488 22.644C26.5733 22.5587 26.7154 22.5872 26.8007 22.6726C29.4157 25.8845 32.5424 23.5253 32.6844 23.4116C32.8011 23.3283 32.9118 23.3547 32.9972 23.4401C33.0824 23.5254 33.054 23.6675 32.9687 23.7528C32.9116 23.7811 31.604 24.7759 29.9271 24.7759Z" fill="#22213F"/>
<path d="M24.356 23.5822C21.7694 23.5822 20.4336 21.1378 20.4051 21.1093C20.3482 20.9956 20.3766 20.8819 20.4904 20.8251C20.6041 20.7682 20.7178 20.7966 20.7747 20.9104C20.86 21.0526 22.736 24.4918 26.4595 22.6158C26.5732 22.559 26.6869 22.6158 26.7437 22.7012C26.8006 22.8149 26.7437 22.9286 26.6584 22.9854C25.8057 23.4117 25.0382 23.5822 24.356 23.5822Z" fill="#22213F"/>
<path d="M26.573 25.4012C26.0045 25.4012 25.3224 25.2307 24.7254 24.52C24.64 24.4347 24.6686 24.2926 24.7539 24.2073C24.8393 24.1219 24.9813 24.1504 25.0667 24.2358C26.0616 25.4296 27.4259 24.8043 27.4827 24.7759C27.5964 24.7191 27.7101 24.7759 27.767 24.8896C27.8238 25.0033 27.767 25.117 27.6533 25.1738C27.6248 25.2024 27.17 25.4012 26.573 25.4012Z" fill="#22213F"/>
<path d="M33.1959 13.0654C32.1727 12.5252 31.1209 12.4684 30.8935 12.9517C30.6376 13.4349 31.2915 14.2308 32.3147 14.7708C33.3379 15.3109 34.3897 15.3677 34.6171 14.8845C34.8728 14.4012 34.2191 13.6053 33.1959 13.0654Z" fill="#91AADB"/>
<path d="M33.8495 15.4244C33.821 15.4244 33.7643 15.4244 33.7358 15.4244C33.2811 15.3959 32.7126 15.2254 32.201 14.9697C31.0355 14.3727 30.3819 13.4631 30.6945 12.8663C31.0072 12.2694 32.1156 12.2694 33.2811 12.8949C33.7927 13.1791 34.2474 13.5202 34.5317 13.8898C34.8444 14.3162 34.9296 14.7141 34.7874 14.9984C34.6454 15.2539 34.3328 15.4244 33.8495 15.4244ZM31.6325 12.8378C31.3483 12.8378 31.1492 12.9232 31.064 13.0369C30.8935 13.3496 31.4336 14.0886 32.4 14.5717C32.8833 14.8276 33.3664 14.9697 33.7643 14.9982C34.1054 15.0267 34.3613 14.9413 34.4182 14.7991C34.5033 14.6569 34.4182 14.4012 34.2191 14.1453C33.9632 13.8326 33.5653 13.52 33.1105 13.2641C32.5421 12.9515 32.0304 12.8378 31.6325 12.8378Z" fill="#5464B5"/>
<path d="M24.5181 10.5515C23.3786 10.7516 22.5124 11.351 22.6289 11.8724C22.7228 12.4112 23.7272 12.6394 24.8667 12.4393C26.0063 12.2392 26.8725 11.6398 26.756 11.1184C26.6617 10.5797 25.6575 10.3512 24.5181 10.5515Z" fill="#91AADB"/>
<path d="M26.4801 12.0156C26.4575 12.033 26.4128 12.0677 26.3902 12.0852C26.0133 12.3412 25.4595 12.5548 24.8986 12.6662C23.6117 12.9085 22.5379 12.5903 22.4192 11.927C22.3006 11.2636 23.1765 10.5844 24.4809 10.3647C25.0593 10.2759 25.6278 10.2668 26.0789 10.3847C26.5873 10.53 26.8985 10.7924 26.9603 11.1041C27.0047 11.3932 26.8621 11.7194 26.4801 12.0156ZM23.1431 11.3297C22.9185 11.5039 22.8134 11.6934 22.8159 11.8354C22.8727 12.187 23.7524 12.4401 24.8122 12.2298C25.3509 12.1359 25.8196 11.9522 26.1516 11.7308C26.4387 11.5443 26.5886 11.3201 26.5464 11.1728C26.5266 11.0082 26.3026 10.8583 25.9884 10.7781C25.5945 10.6876 25.0885 10.6845 24.5723 10.7609C23.9316 10.8624 23.4576 11.0859 23.1431 11.3297Z" fill="#5464B5"/>
<path d="M19.0672 20.0765C19.0477 20.0765 19.028 20.0738 19.0086 20.0684L6.00715 16.4498C5.89084 16.4175 5.8228 16.297 5.85516 16.1806C5.88752 16.0641 6.00821 15.9961 6.12435 16.0286L19.1258 19.6472C19.2421 19.6796 19.3101 19.8001 19.2777 19.9164C19.2506 20.0131 19.1628 20.0765 19.0672 20.0765Z" fill="#22213F"/>
<path d="M18.7873 21.0152C18.7777 21.0152 18.7681 21.0146 18.7583 21.0132L5.0245 19.1945C4.90468 19.1786 4.82055 19.0687 4.83647 18.9491C4.85238 18.8294 4.96311 18.7458 5.08187 18.7611L18.8156 20.5798C18.9354 20.5957 19.0196 20.7056 19.0037 20.8252C18.9893 20.9352 18.8954 21.0152 18.7873 21.0152Z" fill="#22213F"/>
<path d="M5.89593 22.2331C5.77699 22.2331 5.67973 22.138 5.67729 22.0185C5.67501 21.8978 5.77104 21.7981 5.8919 21.7958L18.6103 21.5576C18.7298 21.5588 18.8307 21.6515 18.833 21.7722C18.8352 21.8929 18.7392 21.9926 18.6183 21.9949L5.89995 22.2331C5.89873 22.2331 5.89733 22.2331 5.89593 22.2331Z" fill="#22213F"/>
<path d="M47.896 25.8473C47.8836 25.8473 47.871 25.8463 47.8586 25.8442L34.8168 23.5988C34.6977 23.5783 34.6179 23.4652 34.6384 23.3462C34.6589 23.2269 34.774 23.1481 34.8908 23.1678L47.9326 25.4132C48.0517 25.4336 48.1315 25.5468 48.111 25.6657C48.0928 25.7723 48.0005 25.8473 47.896 25.8473Z" fill="#22213F"/>
<path d="M47.598 28.8188C47.5756 28.8188 47.5527 28.8153 47.5301 28.8079L34.3832 24.5149C34.2684 24.4774 34.2056 24.354 34.2431 24.239C34.2807 24.1243 34.4036 24.0613 34.5187 24.0991L47.6657 28.3921C47.7804 28.4296 47.8432 28.5531 47.8058 28.668C47.7757 28.7602 47.6901 28.8188 47.598 28.8188Z" fill="#22213F"/>
<path d="M45.6998 31.1946C45.6678 31.1946 45.6355 31.1874 45.6048 31.1727L34.0755 25.5979C33.9667 25.5452 33.9212 25.4146 33.9739 25.306C34.0265 25.1972 34.1572 25.1517 34.2658 25.2042L45.7951 30.779C45.9039 30.8316 45.9494 30.9623 45.8968 31.0709C45.859 31.1491 45.7812 31.1946 45.6998 31.1946Z" fill="#22213F"/>
<path d="M27.0409 22.8561C26.9226 22.8561 26.7935 22.8496 26.6596 22.8328C26.6529 22.8319 26.6464 22.8309 26.64 22.8295C25.8863 22.664 25.1915 21.9282 24.7927 21.2946C24.3652 20.6158 24.1753 19.9268 24.283 19.4488C24.3261 19.1673 24.4894 18.9298 24.5835 18.8124C24.5975 18.7951 24.614 18.7799 24.6325 18.7675C24.6692 18.7428 24.7 18.7182 24.7306 18.6935C24.771 18.6611 24.8114 18.6291 24.8601 18.5968C25.4912 18.2177 26.4672 18.1579 27.6172 18.4234C28.4715 18.6183 29.5886 19.0082 30.0562 19.7578C30.2514 20.0708 30.3082 20.4083 30.2251 20.7615C30.0209 21.6471 28.6873 22.547 27.6183 22.8001C27.5399 22.8199 27.3209 22.8561 27.0409 22.8561ZM26.7243 22.4001C27.11 22.4471 27.446 22.3925 27.5151 22.3752C28.5434 22.1316 29.6523 21.2995 29.7994 20.6623C29.8557 20.4225 29.8183 20.2028 29.6852 19.9894C29.3824 19.504 28.6133 19.0993 27.5194 18.8497C26.4798 18.6095 25.6185 18.651 25.0939 18.9662C25.0656 18.9854 25.0348 19.0103 25.0038 19.0351C24.9724 19.0603 24.9409 19.0853 24.9055 19.1103C24.8029 19.245 24.732 19.3963 24.7144 19.5201C24.7135 19.5266 24.7123 19.5331 24.7107 19.5394C24.6257 19.9007 24.7987 20.4841 25.1625 21.0618C25.6019 21.7592 26.2137 22.2832 26.7243 22.4001Z" fill="#22213F"/>
<path d="M35.8229 19.7472C35.775 19.7472 35.7267 19.7315 35.6865 19.6993C33.3607 17.8361 31.0905 19.1592 31.0677 19.1728C30.9733 19.2295 30.8514 19.2069 30.7833 19.1202C30.7153 19.0334 30.7225 18.9097 30.7999 18.8314L32.2662 17.3502C32.3512 17.2645 32.4894 17.2636 32.5756 17.3486C32.6613 17.4335 32.6621 17.572 32.5772 17.6579L31.8212 18.4214C32.7964 18.1702 34.3723 18.0859 35.96 19.3578C36.0543 19.4334 36.0695 19.5709 35.994 19.6652C35.9504 19.7192 35.8869 19.7472 35.8229 19.7472Z" fill="#22213F"/>
<path d="M23.7164 35.9377C23.68 35.9377 23.6431 35.9286 23.6091 35.9095C21.3794 34.6519 21.2905 32.3878 21.2879 32.2922C21.2844 32.1715 21.3795 32.0709 21.5002 32.0674C21.6249 32.0616 21.7213 32.1589 21.725 32.2796C21.7278 32.3672 21.8161 34.3962 23.8239 35.5286C23.9291 35.5878 23.9661 35.7213 23.907 35.8264C23.8666 35.8978 23.7926 35.9377 23.7164 35.9377Z" fill="#22213F"/>
<path d="M26.6944 39.1211C26.6101 39.1211 26.5296 39.0719 26.4937 38.9897C26.4456 38.8791 26.496 38.7502 26.6067 38.702C26.6396 38.6876 27.4224 38.35 28.2994 38.325C28.425 38.3219 28.5206 38.4167 28.5241 38.5374C28.5276 38.6581 28.4325 38.7588 28.3118 38.7621C27.5219 38.7847 26.7887 39.0997 26.7813 39.1029C26.753 39.1151 26.7234 39.1211 26.6944 39.1211Z" fill="#5464B5"/>
<path d="M27.2524 40.0871C27.1614 40.0871 27.0766 40.0299 27.0454 39.9393C27.0063 39.8251 27.0673 39.7007 27.1813 39.6615C27.1901 39.6586 28.0576 39.3609 28.6586 39.1254C28.7715 39.0815 28.8979 39.1368 28.942 39.2493C28.9859 39.3617 28.9306 39.4885 28.8182 39.5326C28.2082 39.7715 27.3318 40.0722 27.323 40.0752C27.2998 40.0832 27.2758 40.0871 27.2524 40.0871Z" fill="#5464B5"/>
<path d="M27.445 41.2342C27.3451 41.2342 27.255 41.1653 27.2319 41.0639C27.2052 40.9462 27.279 40.829 27.3967 40.8022C27.4026 40.8008 27.9926 40.6651 28.7421 40.3627C28.8541 40.3174 28.9816 40.3717 29.0267 40.4835C29.0718 40.5955 29.0178 40.723 28.9058 40.7681C28.1215 41.0845 27.5188 41.2229 27.4934 41.2285C27.4773 41.2325 27.4611 41.2342 27.445 41.2342Z" fill="#5464B5"/>
<path d="M25.8289 34.9979C26.1244 34.9979 26.3639 34.7583 26.3639 34.4628C26.3639 34.1673 26.1244 33.9277 25.8289 33.9277C25.5334 33.9277 25.2938 34.1673 25.2938 34.4628C25.2938 34.7583 25.5334 34.9979 25.8289 34.9979Z" fill="#2A395B"/>
<path d="M25.829 35.2166C25.4134 35.2166 25.0753 34.8785 25.0753 34.4627C25.0753 34.0471 25.4134 33.709 25.829 33.709C26.2445 33.709 26.5826 34.0471 26.5826 34.4627C26.5826 34.8785 26.2445 35.2166 25.829 35.2166ZM25.829 34.1463C25.6544 34.1463 25.5125 34.2883 25.5125 34.4627C25.5125 34.6371 25.6546 34.7793 25.829 34.7793C26.0033 34.7793 26.1454 34.6372 26.1454 34.4627C26.1454 34.2881 26.0033 34.1463 25.829 34.1463Z" fill="#22213F"/>
<path d="M27.4882 51.6824C27.4131 51.6824 27.3398 51.6436 27.2993 51.5742C27.2382 51.4699 27.2734 51.3361 27.3776 51.2751L28.5649 50.5808C28.6688 50.5196 28.803 50.555 28.864 50.6592C28.9251 50.7634 28.8899 50.8973 28.7857 50.9583L27.5984 51.6525C27.5637 51.673 27.5256 51.6824 27.4882 51.6824Z" fill="#5464B5"/>
<path d="M27.6767 52.7276C27.5922 52.7276 27.5118 52.6785 27.4761 52.5959C27.4281 52.4852 27.4789 52.3565 27.5896 52.3084L28.6837 51.8336C28.7942 51.7854 28.9233 51.8364 28.9714 51.9472C29.0193 52.0579 28.9686 52.1866 28.8579 52.2347L27.7638 52.7094C27.7353 52.7218 27.7057 52.7276 27.6767 52.7276Z" fill="#5464B5"/>
<path d="M28.5268 53.5755C28.4348 53.5755 28.3489 53.5169 28.319 53.4246C28.2816 53.3098 28.3444 53.1865 28.4593 53.1491L29.8642 52.692C29.9789 52.6544 30.1024 52.7174 30.1396 52.8323C30.1771 52.9471 30.1143 53.0704 29.9994 53.1078L28.5945 53.5649C28.5721 53.572 28.5492 53.5755 28.5268 53.5755Z" fill="#5464B5"/>
</svg>
